<svg id="Layer_1" data-name="Layer 1" xmlns="http://www.w3.org/2000/svg" viewBox="0 0 720.21 220.2"><defs><style>.cls-1{fill:#121130;}.cls-2{fill:#39b54a;}.cls-3{fill:#ef3e2d;}.cls-4{fill:#c13122;}.cls-5{fill:#008ccf;}.cls-6{fill:#0069a4;}.cls-7{fill:#26912d;}.cls-8{fill:#197f20;}</style></defs><title>RickyBooks</title><rect class="cls-1" width="720.21" height="220.2"/><path class="cls-2" d="M197.7,149.66q0.37-17.59.37-35.44,0-27.32-.86-55.19a168.51,168.51,0,0,1,17.1-1q21,0,26.82,7.69a25.81,25.81,0,0,1,5.41,15.87,33.45,33.45,0,0,1-1,8.12q-3.57,13.54-15,17.16,8,1.11,12.12,8.61,3.94,7.26,3.94,36.54v2.65l-18.58.25q0.31-7.75.31-13.9,0-18.64-3-22.82-3.45-4.67-8.18-4.67a10.3,10.3,0,0,0-1.91.18q0.37,18.77,1.6,35.56Zm15.75-76.29,0.43,26.33q11.44-.55,14.52-7.75a18.56,18.56,0,0,0,1.66-7.44,16.16,16.16,0,0,0-1.23-6.15q-2.22-5.23-11-5.23A42,42,0,0,0,213.45,73.37Z" transform="translate(0.21)"/><path class="cls-2" d="M271.65,73.18A9,9,0,1,1,269,66.85,8.72,8.72,0,0,1,271.65,73.18Zm-16.49,77.64q-0.43-36-.43-62.2l15.5-.92q-0.74,25.1-.74,49.89,0,6.64.06,13.23h-14.4Z" transform="translate(0.21)"/><path class="cls-2" d="M302.85,125.17l14.64,0.92q0,22.21-20.49,22.52a1.82,1.82,0,0,1-.43.06q-19.5,0-19.5-29.59v-1.85q0.61-31.75,20.8-32.05h0.49q18.58,0,18.58,21.29,0,1.23-.06,2.46l-13.23,1v-1.48q0-11.2-6.34-11.2t-6.46,18.15v2Q291.22,137,297.37,137h0.37q5.35-.43,5.35-8.18A31,31,0,0,0,302.85,125.17Z" transform="translate(0.21)"/><path class="cls-2" d="M372.18,87.09L388.3,85.8q-0.55,18.46-.55,30.39,0,4.49.12,8.06,0.25,13.17,5.91,13.53a4.11,4.11,0,0,0,.68.06q5,0,6.4-5.78,0.74-3.38.74-16.06,0-10.15-.49-26.21l15.13-1.11q0.25,18.77.25,32.24,0,16.8-.37,25.35-0.62,15.38-8.8,23.38-7.38,7.26-20.73,7.26-1.54,0-3.14-.12l-1.72-15q1.17,0.06,2.28.06,10.34,0,14.15-3.63t3.94-12.06v-1q-3.51,5.54-10.77,5.54h-0.86q-7.94-.37-12.3-6.25T373.38,128Q373,117.36,372.18,87.09Z" transform="translate(0.21)"/><path class="cls-2" d="M428.81,148.36q0.24-17.16.25-33.78,0-28.67-.74-55.68a176.85,176.85,0,0,1,18.33-1.11q14.46,0,20.06,3.75a21,21,0,0,1,9.72,15.63q0.25,2.52.25,4.86a27.5,27.5,0,0,1-2.28,11.63q-3.14,6.71-11.14,9.6,8.92,1.35,12.8,6.46,3.26,4.31,3.26,12.31,0,1.54-.12,3.2-0.74,10.46-6.61,15.63t-16.33,7.08a80.25,80.25,0,0,1-13.84,1Q436.19,149,428.81,148.36Zm15.81-75.3,0.43,26.39q11.44-.61,14.52-7.81a18.69,18.69,0,0,0,1.66-7.51A16,16,0,0,0,460,78q-2.15-5.23-11-5.23A43.27,43.27,0,0,0,444.62,73.06Zm1.17,39.07v20.61q1.41,0.06,2.71.06,11.44,0,14.46-6.27a15,15,0,0,0,1.66-6.34,7.78,7.78,0,0,0-1.6-4.86q-2.65-3.38-12.3-3.38Q448.43,111.94,445.79,112.13Z" transform="translate(0.21)"/><path class="cls-2" d="M506.84,87.33q20.92,0,20.92,29,0,1.17-.06,2.34-0.86,31.44-22.27,31.75a2,2,0,0,1-.49.06q-20.36,0-20.36-29.72v-1.72Q485.18,87.33,506.84,87.33Zm-2,14q-3.88,1.35-5.29,10a63.09,63.09,0,0,0-.86,10.4,68.83,68.83,0,0,0,.37,7.08q1,8.86,6.34,9.17h0.43q5,0,6.83-6.58a48.36,48.36,0,0,0,1.54-13q0-1.85-.06-3.75-0.49-9.91-3-12.37a5.14,5.14,0,0,0-3.69-1.48A8.1,8.1,0,0,0,504.81,101.36Z" transform="translate(0.21)"/><path class="cls-2" d="M554.56,87.33q20.92,0,20.92,29,0,1.17-.06,2.34-0.86,31.44-22.27,31.75a2,2,0,0,1-.49.06q-20.36,0-20.36-29.72v-1.72Q532.91,87.33,554.56,87.33Zm-2,14q-3.88,1.35-5.29,10a63.09,63.09,0,0,0-.86,10.4,68.83,68.83,0,0,0,.37,7.08q1,8.86,6.34,9.17h0.43q5,0,6.83-6.58a48.36,48.36,0,0,0,1.54-13q0-1.85-.06-3.75-0.49-9.91-3-12.37a5.14,5.14,0,0,0-3.69-1.48A8.1,8.1,0,0,0,552.53,101.36Z" transform="translate(0.21)"/><path class="cls-2" d="M595.7,63l-0.25,47.68q8.43-13,15.93-25.16l14.15,1.6q-11.14,15.5-19.44,29.35,7,12.61,19.26,32.79L610.1,150.7a214.33,214.33,0,0,0-15.5-28.05v23.62l-13.47.25q0.43-32.73.43-82.32Z" transform="translate(0.21)"/><path class="cls-2" d="M625.6,128.68l14.09-.68v0.8q0,9.47,5.84,9.6h0.25q5.66,0,5.66-5.48v-0.43q-0.25-6-11.17-9.72t-13.14-12.43a23.45,23.45,0,0,1-.8-5.91,18.38,18.38,0,0,1,2.65-9.6,15.73,15.73,0,0,1,12.3-7.75,39.12,39.12,0,0,1,4.31-.25,23.08,23.08,0,0,1,9.66,1.91,15.26,15.26,0,0,1,7.94,7.57,18.57,18.57,0,0,1,1.48,7.51,27.91,27.91,0,0,1-.31,4.06l-13.17.31a23.91,23.91,0,0,0,.18-2.83q0-6.15-3.94-6.58a6.23,6.23,0,0,0-.86-0.06q-4.06,0-5.48,4.12a7.93,7.93,0,0,0-.49,2.58,6.15,6.15,0,0,0,2.71,5,49.37,49.37,0,0,0,11.29,6,16.89,16.89,0,0,1,10.06,10.37,17.42,17.42,0,0,1,.92,5.54,18.85,18.85,0,0,1-2.71,9.41,17.17,17.17,0,0,1-13.35,8.8,25,25,0,0,1-3.88.31,23.76,23.76,0,0,1-12.55-3.51Q625.72,142.83,625.6,128.68Z" transform="translate(0.21)"/><path class="cls-2" d="M339.43,63l-0.25,47.68q8.43-13,15.93-25.16l14.15,1.6q-11.14,15.5-19.44,29.35,7,12.61,19.26,32.79l-15.26,1.48a214.33,214.33,0,0,0-15.5-28.05v23.62l-13.47.25q0.43-32.73.43-82.32Z" transform="translate(0.21)"/><rect class="cls-3" x="101.5" y="58.13" width="30.62" height="89.96"/><rect class="cls-4" x="106.05" y="68.42" width="22.49" height="3.35"/><rect class="cls-4" x="106.05" y="79.42" width="22.49" height="3.35"/><rect class="cls-4" x="106.05" y="133.97" width="22.49" height="3.35"/><rect class="cls-5" x="139.49" y="58.13" width="30.62" height="89.96"/><rect class="cls-6" x="144.03" y="68.42" width="22.49" height="3.35"/><rect class="cls-6" x="144.03" y="79.42" width="22.49" height="3.35"/><rect class="cls-6" x="144.03" y="133.97" width="22.49" height="3.35"/><rect class="cls-7" x="48.96" y="56.22" width="30.62" height="89.96" transform="translate(40.85 -16.33) rotate(21.05)"/><rect class="cls-8" x="65.33" y="68.88" width="22.49" height="3.35" transform="translate(30.67 -22.8) rotate(21.05)"/><rect class="cls-8" x="61.38" y="79.15" width="22.49" height="3.35" transform="translate(34.09 -20.7) rotate(21.05)"/><rect class="cls-8" x="41.78" y="130.06" width="22.49" height="3.35" transform="translate(51.07 -10.26) rotate(21.05)"/><text x="0.21"/></svg>